<svg xmlns="http://www.w3.org/2000/svg" xmlns:xlink="http://www.w3.org/1999/xlink" version="1.1" x="0px" y="0px" viewBox="0 0 100 100" enable-background="new 0 0 100 100" xml:space="preserve"><path d="M65,59v26.5c0,1.45-1.18,2.62-2.62,2.62h-7.55c-1.63,0-3.16-1.271-3.16-2.29v-14c0-1.01-0.82-1.83-1.84-1.83  C48.82,70,48,70.82,48,71.83v14c0,1.02-0.62,2.29-2.19,2.29h-9.43c-1.45,0-2.63-1.17-2.63-2.62V59c0-1.45-14.75-9,6.25-24.62  c0,0,2.58,3,9.62,3c7.05,0,9.38-3,9.38-3C80.83,50,65,57.55,65,59z"></path><path d="M62,95.438c0,1.062-2.099,1.188-4.688,1.188l0,0c-2.589,0-4.688-0.216-4.688-1.188v-0.125c0-2.589,2.099-4.688,4.688-4.688  l0,0c2.589,0,4.688,2.099,4.688,4.688V95.438z"></path><path d="M46.639,95.438c0,1.062-2.099,1.188-4.688,1.188l0,0c-2.589,0-4.688-0.216-4.688-1.188v-0.125  c0-2.589,2.099-4.688,4.688-4.688l0,0c2.589,0,4.688,2.099,4.688,4.688V95.438z"></path><circle cx="49.385" cy="20.25" r="14.125"></circle></svg>